<svg preserveAspectRatio="xMidYMid meet" viewBox="0 0 720 150" xmlns="http://www.w3.org/2000/svg"><path fill="#1f2937" d="m47.5 20.300003-.46875-.3125-5.3125 2.499985v47.1875c0 4.21878-.78125 8.12503-2.5 11.71875-1.71875 3.75-4.6875 7.1875-8.59375 10.62503l-5.15625 4.06247.625.78125c1.09375-.625 2.65625-1.25 4.21875-1.71872 1.71875-.62503 3.125-.78125 4.375-.78125 2.34375 0 4.375 0 6.40625.15622 1.875.15625 4.0625.3125 6.40625.46878m37.96875-80.000034c-.78125 1.093769-1.71875 2.343754-2.8125 3.750019-1.25 1.406235-2.5 2.968735-3.75 4.531235s-2.5 2.968765-3.75 4.531265c-1.40625 1.5625-2.65625 2.812485-3.75 3.90625-1.09375-.46875-2.5-.9375-4.21875-1.71875-1.71875-.625-3.59375-1.5625-5.46875-2.500015-2.03125-.937485-3.90625-1.875-5.9375-2.968735-2.03125-.937515-3.90625-2.031265-5.78125-3.125v73.906235c2.96875.62503 5.78125 1.09375 8.4375 1.71875s5.15625 1.09378 7.34375 1.5625c2.1875.46878 4.0625.78125 5.625 1.09378 1.5625.46872 2.8125.62497 3.59375.62497 1.5625 0 2.8125-.62497 3.75-1.875 1.09375-1.09372 2.03125-2.49997 3.125-4.21872l2.65625 1.87497-14.53125 19.84375c-6.875-1.875-14.6875-3.4375-23.59375-5-8.75-1.5625-18.75-2.1875-30-2.1875-1.875008 0-3.75.625-5.78126 1.87503-2.03123 1.24997-3.90625 2.81247-5.78124 4.53122l-2.1875-2.34375 12.03125-10.9375c2.5-2.03122 4.21875-3.90625 5.78125-5.78125 1.40625-1.87497 2.34375-3.90625 3.125-5.78122.78125-1.87503 1.25-3.90625 1.5625-6.09375.15625-2.34375.3125-4.6875.3125-7.50003v-10.78125h-1.875c-3.28125 0-6.09375.46875-8.4375 1.40625-2.18751.9375-3.90625 2.5-4.99999 4.84375l-1.25001-.46872c.78125-7.34378 2.49999-12.65625 5.46875-15.78125 2.96875-3.281265 6.5625-4.843765 10.625-4.843765h.46875v-23.906265c2.1875-.937485 5-2.03125 8.125-3.59375s6.25-3.281235 9.6875-4.843735c3.28125-1.718765 6.5625-3.4375 9.6875-5 3.125-1.71875 5.78125-3.125 7.96875-4.375 3.90625 2.499981 7.34375 4.531231 10.46875 5.78125 3.125 1.25 5.46875 1.874985 7.03125 1.874985.78125 0 1.5625-.312485 2.34375-.781254.625-.46875 1.5625-1.5625 2.8125-2.968731m31.25 61.406265c-1.5625.46872-3.125.78125-4.6875.78125-1.09375 0-2.1875 0-3.28125-.15628-1.09375-.15625-2.1875-.3125-3.125-.62497-.625 1.24997-.9375 3.125-.9375 5.625v19.84372c1.25.78125 2.34375 1.40625 3.4375 2.34375.9375.78125 2.1875 1.5625 3.4375 2.1875l5.15625-4.375m0-50.15625c-3.125-1.718735-5.625-2.968735-7.8125-3.4375-2.1875-.624985-3.90625-.937485-5.3125-.937485-.78125 0-1.5625.156235-2.5.468735-.9375.46875-1.875.937515-2.8125 1.875015-1.09375.937485-1.875 2.1875-2.5 3.90625-.625 1.718735-.9375 3.906265-.9375 6.718735 0 1.87503.46875 3.59378 1.40625 5.3125.9375 1.5625 2.1875 2.96878 3.75 4.21875 1.5625 1.25 3.4375 2.1875 5.625 2.96875 2.03125.625 4.21875.9375 6.5625.9375.625 0 1.25 0 2.1875-.15625.78125-.31247 1.5625-.46872 2.34375-.78125m22.03125 33.4375c-1.71875 1.71875-3.4375 3.4375-5.46875 5.46875-2.1875 1.875-3.90625 3.59378-5.3125 5-2.1875-1.71875-4.53125-3.59372-7.1875-5.31247-2.5-1.87503-4.375-3.28128-5.78125-4.21878l-11.25 9.53125c-1.875-1.5625-4.375-3.4375-7.1875-5.625-2.8125-2.03122-5.46875-3.90625-7.96875-5.46875v-.625c.78125-.46872 1.40625-1.09375 1.875-2.03122.3125-.78125.625-2.5.625-5.00003v-15.78125c2.5-1.24997 4.84375-2.34375 6.875-3.43747 2.1875-1.09378 3.90625-2.03128 5.625-3.125-1.40625-.46878-2.8125-1.25003-4.375-2.18753-1.40625-.78125-2.65625-1.87497-3.90625-3.125-1.09375-1.40625-2.1875-2.8125-2.8125-4.375-.78125-1.71875-1.25-3.59375-1.25-5.625 0-2.5.3125-4.53125.9375-6.406235.46875-1.875 1.25-3.59375 2.03125-5.15625.9375-1.40625 1.875-2.812515 2.96875-4.062515 1.09375-1.249985 2.1875-2.65625 3.28125-3.90625 1.09375-1.406235 2.03125-2.65625 2.8125-3.593735.78125-1.093765 1.5625-2.187515 2.34375-3.437515 1.71875.78125 3.75 1.5625 6.09375 2.500015 2.5.78125 5 1.71875 7.5 2.656235 2.65625.937515 5.3125 1.875 7.8125 2.812515 2.34375.9375 4.6875 1.5625 6.5625 2.34375v.46875c-.78125.78125-1.40625 1.5625-1.71875 2.499985-.46875.937515-.625 2.34375-.625 4.218765v51.406235c.3125.31253.78125.625 1.40625 1.09378.625.46872 1.40625.93747 2.03125 1.24997.78125.31253 1.40625.625 2.1875.78125.625.31253 1.09375.31253 1.5625.15628m47.65625.15625c-1.40625 1.40625-3.125 3.125-5.15625 5.15622-2.1875 2.03125-3.906235 3.90625-5.625 5.46875-2.187485-1.5625-4.375015-3.28125-6.874985-5-2.656265-1.71872-4.843765-3.125-6.718765-4.375v-.62497c.9375-.31253 1.5625-1.09378 1.875-2.03128.312485-.93747.625-2.49997.625-4.6875v-83.437504c0-1.718731-.15625-3.125-.312515-4.21875-.15622-1.25-.624985-2.187481-1.093735-2.968731l.46875-.156269c1.09375.156269 2.187485.78125 3.28125 1.875 1.249985 1.093769 2.031235 2.34375 2.656265 3.750019h.312485c.9375-2.34375 2.34375-4.531269 4.375015-6.5625 1.874985-2.03125 4.062485-3.28125 6.562485-4.0625l.46875.312481c-.625.937519-1.09375 2.187519-1.5625 3.593769-.46875 1.406231-.78125 3.28125-.78125 5.781231v88.750004c1.25.78125 2.5 1.5625 3.90625 2.34375 1.40625.625 2.5.93753 3.28125.93753m19.84375 10.78122c-.78125-.62497-1.71875-1.24997-2.8125-2.03122-1.09375-.9375-2.34375-1.71875-3.4375-2.65628-1.25-.78125-2.5-1.5625-3.75-2.5-1.25-.78125-2.34375-1.5625-3.28125-2.1875v-.62497c.9375-.625 1.5625-1.25003 1.875-2.1875.3125-.9375.46875-2.5.46875-4.37503v-52.34375l-1.875-1.09375c-1.40625-.937485-2.5-1.5625-3.28125-1.718735-.625 0-1.40625-.15625-2.1875-.15625l-.15625-.625 10.9375-10.468765c1.71875 1.25 3.75 2.8125 6.25 4.6875 2.65625 1.875015 5 3.437515 7.1875 4.843765v.624985c-.9375.46875-1.40625 1.093765-1.875 2.03125-.3125.937515-.46875 2.187515-.46875 4.062515v52.812515c2.03125 1.40622 3.59375 2.18747 4.6875 2.65622.9375.3125 1.71875.46878 2.34375.46878l.3125.31247m-1.25-89.843735c-.78125.78125-1.71875 1.5625-3.125 2.65625-1.40625.9375-2.8125 2.03125-4.375 3.125-1.71875 1.093735-3.28125 2.187485-4.84375 3.28125-1.40625 1.09375-2.8125 2.031235-4.0625 2.812485l-.9375-6.093735c.9375-.937515 2.03125-2.031265 3.28125-3.4375 1.25-1.406269 2.5-2.65625 3.75-4.062519 1.25-1.406231 2.5-2.8125 3.59375-4.218731 1.09375-1.40625 2.03125-2.500019 2.5-3.281269.625.78125 1.25 2.03125 2.03125 4.062519.78125 1.874981 1.5625 3.59375 2.1875 5.15625m45.15625 112.968765c-.15625-2.65628-.78125-4.6875-1.71875-6.25-.9375-1.40625-1.875-2.81253-2.96875-4.21878-1.25-1.40625-2.34375-2.81247-3.28125-4.53125-1.09375-1.5625-1.71875-3.90625-2.03125-6.87497l-14.53125 17.03122c3.4375 0 6.25.15628 8.59375.46875 2.5.3125 4.6875.62503 6.40625 1.09375 1.875.46875 3.59375.93753 5 1.5625 1.5625.625 2.96875 1.25 4.375 1.87503m-10-78.59378c-1.71875-1.09375-3.4375-2.34375-5.46875-3.593735-2.03125-1.25-4.0625-2.5-6.09375-3.750015l-.46875.3125v55.93753l9.21875 6.71872 2.8125-3.125m20.625 13.75c0 1.40628-.78125 2.96878-2.34375 4.6875-1.40625 1.71875-2.8125 3.4375-4.0625 5-1.5625 2.03125-3.125 4.06253-4.6875 5.9375-1.25 1.5625-2.5 3.125-3.90625 4.84375-1.25 1.71875-2.34375 3.125-2.96875 4.21878-3.59375-1.87503-7.5-3.28128-11.71875-4.37503-4.375-1.09372-9.21875-1.40625-14.84375-1.09372-.3125.46872-.625 1.09372-.9375 1.71875-.3125.625-.625 1.24997-.78125 2.03122h-.15625c-.3125-.3125-.46875-.78125-.9375-1.5625s-.78125-1.40622-.9375-1.875c1.5625-2.34375 3.75-5.15625 6.5625-8.59375 2.8125-3.43747 6.25-7.18747 10-11.5625l-17.8125-12.03122v-.62503c.625-.31247 1.25-.78125 1.71875-1.71872.46875-.9375.625-2.18753.625-4.0625v-48.906265c4.375-2.500015 8.4375-4.843765 12.34375-7.34375 4.0625-2.5 7.96875-5.312515 11.875-8.28125 3.28125 2.187485 6.71875 4.375 10.15625 6.406235 3.59375 2.187515 6.5625 3.90625 9.0625 5.312515v.46875c-.78125.625-1.25 1.40625-1.71875 2.1875-.46875.9375-.625 2.187485-.625 3.749985v49.53128c0 1.87497.3125 3.59372.9375 4.99997.625 1.40628 1.25 2.81253 2.03125 4.0625.78125 1.09378 1.5625 2.34375 2.1875 3.43753.625 1.09372.9375 2.18747.9375 3.43747m30.78125-40.93747c-1.5625.46872-3.28125.78125-4.84375.78125-.9375 0-2.03125 0-3.125-.15628-1.25-.15625-2.1875-.3125-3.125-.62497-.78125 1.24997-1.09375 3.125-1.09375 5.625v19.84372c1.25.78125 2.34375 1.40625 3.4375 2.34375 1.09375.78125 2.1875 1.5625 3.4375 2.1875l5.3125-4.375m0-50.15625c-3.125-1.718735-5.78125-2.968735-7.96875-3.4375-2.03125-.624985-3.90625-.937485-5.3125-.937485-.625 0-1.40625.156235-2.5.468735-.9375.46875-1.875.937515-2.8125 1.875015-.9375.937485-1.71875 2.1875-2.34375 3.90625-.78125 1.718735-1.09375 3.906265-1.09375 6.718735 0 1.87503.46875 3.59378 1.40625 5.3125.9375 1.5625 2.1875 2.96878 3.90625 4.21875 1.5625 1.25 3.4375 2.1875 5.46875 2.96875 2.1875.625 4.375.9375 6.5625.9375.625 0 1.40625 0 2.1875-.15625.78125-.31247 1.5625-.46872 2.5-.78125m21.875 33.4375c-1.5625 1.71875-3.4375 3.4375-5.46875 5.46875-2.03125 1.875-3.75 3.59378-5.15625 5-2.34375-1.71875-4.6875-3.59372-7.1875-5.31247-2.5-1.87503-4.53125-3.28128-5.9375-4.21878l-11.09375 9.53125c-2.03125-1.5625-4.375-3.4375-7.1875-5.625-2.96875-2.03122-5.625-3.90625-7.96875-5.46875v-.625c.78125-.46872 1.25-1.09375 1.71875-2.03122.46875-.78125.625-2.5.625-5.00003v-15.78125c2.5-1.24997 4.84375-2.34375 7.03125-3.43747 2.03125-1.09378 3.90625-2.03128 5.46875-3.125-1.40625-.46878-2.8125-1.25003-4.21875-2.18753-1.5625-.78125-2.8125-1.87497-3.90625-3.125-1.25-1.40625-2.1875-2.8125-2.96875-4.375-.78125-1.71875-1.09375-3.59375-1.09375-5.625 0-2.5.3125-4.53125.78125-6.406235.625-1.875 1.25-3.59375 2.1875-5.15625.78125-1.40625 1.71875-2.812515 2.8125-4.062515 1.09375-1.249985 2.1875-2.65625 3.28125-3.90625 1.25-1.406235 2.1875-2.65625 2.96875-3.593735.78125-1.093765 1.5625-2.187515 2.34375-3.437515 1.71875.78125 3.75 1.5625 6.09375 2.500015 2.34375.78125 4.84375 1.71875 7.5 2.656235 2.65625.937515 5.15625 1.875 7.65625 2.812515 2.5.9375 4.6875 1.5625 6.71875 2.34375v.46875c-.9375.78125-1.40625 1.5625-1.875 2.499985-.3125.937515-.625 2.34375-.625 4.218765v51.406235c.3125.31253.78125.625 1.40625 1.09378.78125.46872 1.40625.93747 2.1875 1.24997.625.31253 1.40625.625 2.03125.78125.78125.31253 1.25.31253 1.5625.15628m70.15625-77.812515-7.03125 3.749985v65.15625c0 3.28125-.15625 6.09375-.78125 8.28128-.625 2.34375-1.5625 4.21872-2.8125 5.93747-1.25 1.71878-2.8125 3.28128-4.84375 4.6875-1.875 1.40625-3.90625 2.8125-6.40625 4.375 2.8125.78125 5.15625 1.71875 7.1875 2.96878 1.875 1.09372 3.90625 2.34375 5.625 3.75.625-.46878 1.40625-1.09378 2.34375-1.87503.9375-.9375 1.875-2.1875 2.96875-3.90625.9375-1.87497 1.875-4.21872 2.5-7.49997.78125-3.125 1.25-7.50003 1.25-12.81253m49.21875-84.531235c-.9375 1.09375-2.1875 2.34375-3.59375 3.90625-1.40625 1.406235-2.8125 2.968735-4.375 4.531235-1.40625 1.718765-2.96875 3.125-4.375 4.6875-1.40625 1.406265-2.5 2.500015-3.4375 3.593765-2.34375-.937515-5.15625-2.031265-8.59375-3.4375-3.28125-1.25-6.40625-2.8125-9.375-4.375h-.3125v24.21875h18.59375c-.9375 2.968735-1.71875 6.406265-2.34375 10.312515s-1.09375 7.34372-1.40625 10.3125l-3.75 1.09372-.15625-.15625c.15625-.93747.3125-2.1875.625-3.75s.625-2.81247.78125-3.75h-12.34375v32.65625c0 4.0625-.78125 7.8125-2.1875 10.9375-1.40625 3.28125-3.4375 6.40625-6.40625 9.53125-2.96875 3.28128-6.71875 6.40628-11.25 9.84375-4.53125 3.4375-9.84375 7.1875-16.09375 11.56253-2.5-1.71875-5.3125-3.125-8.28125-4.53128-2.96875-1.25-6.875-1.87497-11.71875-1.87497-2.8125 0-5.15625.9375-7.03125 2.81247-1.875 1.87503-2.8125 3.90625-2.8125 6.40625 0 1.40625.3125 2.8125.78125 3.90625.625 1.25 1.40625 2.34375 2.03125 3.43753l-4.375-1.09378c-.625-.9375-1.09375-2.18747-1.5625-3.74997-.46875-1.40625-.78125-3.28128-.78125-5.78128 0-2.96875.625-5.46875 1.71875-7.96875 1.09375-2.34375 2.65625-4.375 4.375-6.09375 1.875-1.71875 3.90625-2.96875 6.25-3.90625s4.53125-1.40625 6.875-1.40625c2.1875 0 4.0625.15628 5.9375.46875 1.875.15625 3.4375.46878 4.6875.78125.46875-.625.9375-1.40625 1.40625-2.1875.3125-.9375.78125-1.87497.9375-2.96875.3125-1.24997.625-2.5.78125-4.0625s.3125-3.43747.3125-5.625v-40.3125h-1.875c-3.4375 0-6.25.46875-8.4375 1.40625s-3.90625 2.65628-5 5.00003l-1.40625-.625c.78125-7.34378 2.65625-12.50003 5.625-15.781265 2.96875-3.28125 6.5625-4.84375 10.625-4.84375h.46875v-6.875c0-1.406265-.15625-2.656265-.46875-3.90625-.46875-1.406265-.78125-2.34375-1.09375-2.968765v-.156235c4.53125-1.875015 8.75-3.59375 12.5-5.46875 3.75-1.875015 7.34375-3.90625 10.625-5.781265 3.28125-2.031235 6.5625-4.062485 9.53125-6.093735 3.125-2.031269 6.40625-4.21875 9.6875-6.5625 1.40625.46875 2.96875 1.25 4.6875 2.03125 1.875.78125 3.75 1.5625 5.625 2.1875 1.875.78125 3.90625 1.25 5.78125 1.71875 2.03125.468731 3.75.78125 5.46875.78125 1.25 0 2.1875-.312519 2.96875-.78125.78125-.46875 1.71875-1.406269 2.96875-2.8125m10.625 101.874985c-.625-.62497-1.5625-1.24997-2.65625-2.03122-1.25-.9375-2.34375-1.71875-3.59375-2.65628-1.25-.78125-2.5-1.5625-3.75-2.5-1.25-.78125-2.34375-1.5625-3.28125-2.1875v-.62497c.9375-.625 1.5625-1.25003 1.875-2.1875.3125-.9375.46875-2.5.46875-4.37503v-52.34375l-1.71875-1.09375c-1.5625-.937485-2.65625-1.5625-3.4375-1.718735-.625 0-1.40625-.15625-2.1875-.15625v-.625l10.9375-10.468765c1.5625 1.25 3.59375 2.8125 6.25 4.6875 2.5 1.875015 4.84375 3.437515 7.03125 4.843765v.624985c-.78125.46875-1.40625 1.093765-1.71875 2.03125-.46875.937515-.625 2.187515-.625 4.062515v52.812515c2.1875 1.40622 3.75 2.18747 4.6875 2.65622.9375.3125 1.875.46878 2.5.46878l.3125.31247m-1.25-89.843735c-.78125.78125-1.875 1.5625-3.28125 2.65625-1.25.9375-2.8125 2.03125-4.375 3.125-1.5625 1.093735-3.125 2.187485-4.6875 3.28125-1.5625 1.09375-2.96875 2.031235-4.21875 2.812485l-.78125-6.093735c.78125-.937515 1.875-2.031265 3.125-3.4375 1.25-1.406269 2.5-2.65625 3.75-4.062519 1.40625-1.406231 2.5-2.8125 3.59375-4.218731 1.25-1.40625 2.03125-2.500019 2.65625-3.281269.46875.78125 1.25 2.03125 2.03125 4.062519.78125 1.874981 1.40625 3.59375 2.1875 5.15625m30.3125 89.687515c-1.40625 1.40625-3.125 3.125-5.15625 5.15622-2.1875 2.03125-3.90625 3.90625-5.625 5.46875-2.1875-1.5625-4.375-3.28125-6.875-5-2.65625-1.71872-4.84375-3.125-6.71875-4.375v-.62497c.9375-.31253 1.5625-1.09378 1.875-2.03128.3125-.93747.625-2.49997.625-4.6875v-83.437504c0-1.718731-.15625-3.125-.3125-4.21875-.15625-1.25-.625-2.187481-1.09375-2.968731l.46875-.156269c1.09375.156269 2.1875.78125 3.28125 1.875 1.25 1.093769 2.03125 2.34375 2.65625 3.750019h.3125c.9375-2.34375 2.34375-4.531269 4.375-6.5625 1.875-2.03125 4.0625-3.28125 6.5625-4.0625l.46875.312481c-.625.937519-1.09375 2.187519-1.5625 3.593769-.46875 1.406231-.78125 3.28125-.78125 5.781231v88.750004c1.25.78125 2.5 1.5625 3.90625 2.34375 1.40625.625 2.5.93753 3.28125.93753m19.84375 10.78122c-.78125-.62497-1.71875-1.24997-2.8125-2.03122-1.09375-.9375-2.34375-1.71875-3.4375-2.65628-1.25-.78125-2.5-1.5625-3.75-2.5-1.25-.78125-2.34375-1.5625-3.28125-2.1875v-.62497c.9375-.625 1.5625-1.25003 1.875-2.1875.3125-.9375.46875-2.5.46875-4.37503v-52.34375l-1.875-1.09375c-1.40625-.937485-2.5-1.5625-3.28125-1.718735-.625 0-1.40625-.15625-2.1875-.15625l-.15625-.625 10.9375-10.468765c1.71875 1.25 3.75 2.8125 6.25 4.6875 2.65625 1.875015 5 3.437515 7.1875 4.843765v.624985c-.9375.46875-1.40625 1.093765-1.875 2.03125-.3125.937515-.46875 2.187515-.46875 4.062515v52.812515c2.03125 1.40622 3.59375 2.18747 4.6875 2.65622.9375.3125 1.71875.46878 2.34375.46878l.3125.31247m-1.25-89.843735c-.78125.78125-1.71875 1.5625-3.125 2.65625-1.40625.9375-2.8125 2.03125-4.375 3.125-1.71875 1.093735-3.28125 2.187485-4.84375 3.28125-1.40625 1.09375-2.8125 2.031235-4.0625 2.812485l-.9375-6.093735c.9375-.937515 2.03125-2.031265 3.28125-3.4375 1.25-1.406269 2.5-2.65625 3.75-4.062519 1.25-1.406231 2.5-2.8125 3.59375-4.218731 1.09375-1.40625 2.03125-2.500019 2.5-3.281269.625.78125 1.25 2.03125 2.03125 4.062519.78125 1.874981 1.5625 3.59375 2.1875 5.15625m36.25 87.031235v-54.218735c-1.09375-.937515-2.34375-1.875-3.59375-2.65625-1.25-.9375-2.34375-1.5625-3.4375-2.34375l-5 4.374985v51.25003c2.34375 0 4.6875.31247 6.875 1.09372s3.90625 1.5625 5.15625 2.5m16.875-58.593735c-.625.624985-1.25 1.25-1.71875 2.187485-.46875.937515-.625 2.34375-.625 4.218765v52.187485c-2.5 1.87503-4.84375 4.06253-7.5 6.25-2.5 2.34375-4.84375 4.6875-7.03125 7.03125-1.5625-1.09375-3.4375-2.03122-5.625-3.28125-2.03125-1.09372-4.21875-1.87497-6.40625-2.1875v23.90625c0 2.65625.15625 4.6875.625 6.09378.625 1.24997 1.40625 2.34375 2.8125 2.96875l-.3125.62497c-3.28125-.46872-5.9375-1.71875-7.8125-3.74997-1.875-2.03128-3.4375-4.37503-4.53125-6.875h-.15625c-.625 1.40625-1.5625 2.65622-2.96875 3.75-1.40625 1.09372-2.65625 1.71875-3.75 1.87497l-.3125-.15622c.46875-.78125.9375-1.71875 1.40625-2.65628.3125-1.09375.46875-2.81247.46875-5.31247v-83.90628c-2.03125-1.249985-3.4375-2.187485-4.375-2.65625-.9375-.312485-1.71875-.46875-2.5-.46875l-.46875-.468735 10.78125-10.468765c.78125.625015 1.71875 1.406265 2.8125 2.34375 1.09375.937515 2.1875 1.718765 3.4375 2.656265 1.09375.937485 2.34375 1.875 3.4375 2.812485.9375.78125 1.875 1.406265 2.65625 2.03125 2.5-1.874985 4.53125-3.59375 6.40625-5.15625 1.875-1.718735 3.59375-3.125 5.3125-4.6875.9375.78125 2.03125 1.5625 3.4375 2.500015 1.40625.9375 2.96875 1.874985 4.375 2.968735 1.5625.937515 2.96875 1.875015 4.53125 2.8125 1.40625.937515 2.65625 1.718765 3.59375 2.187515m23.28125 72.499985c-.78125-.62497-1.71875-1.24997-2.8125-2.03122-1.09375-.9375-2.34375-1.71875-3.59375-2.65628-1.09375-.78125-2.34375-1.5625-3.59375-2.5-1.40625-.78125-2.5-1.5625-3.4375-2.1875v-.62497c.9375-.625 1.5625-1.25003 2.03125-2.1875.3125-.9375.46875-2.5.46875-4.37503v-52.34375l-1.875-1.09375c-1.5625-.937485-2.65625-1.5625-3.28125-1.718735-.78125 0-1.40625-.15625-2.1875-.15625l-.15625-.625 10.9375-10.468765c1.5625 1.25 3.75 2.8125 6.25 4.6875 2.65625 1.875015 5 3.437515 7.1875 4.843765v.624985c-.9375.46875-1.5625 1.093765-1.875 2.03125-.3125.937515-.625 2.187515-.625 4.062515v52.812515c2.1875 1.40622 3.75 2.18747 4.84375 2.65622.9375.3125 1.71875.46878 2.34375.46878l.3125.31247m-1.25-89.843735c-.78125.78125-1.875 1.5625-3.125 2.65625-1.40625.9375-2.8125 2.03125-4.53125 3.125-1.5625 1.093735-3.125 2.187485-4.6875 3.28125-1.5625 1.09375-2.8125 2.031235-4.0625 2.812485l-.9375-6.093735c.9375-.937515 1.875-2.031265 3.28125-3.4375 1.25-1.406269 2.5-2.65625 3.75-4.062519 1.25-1.406231 2.5-2.8125 3.59375-4.218731 1.09375-1.40625 1.875-2.500019 2.5-3.281269.625.78125 1.25 2.03125 2.03125 4.062519.78125 1.874981 1.5625 3.59375 2.1875 5.15625m58.28125 89.843735c-1.40625 1.40628-3.125 3.125-5.3125 5.15628-2.03125 2.03122-3.90625 3.90625-5.625 5.46875-.78125-.625-1.875-1.40625-3.125-2.34375-1.25-.93753-2.5-1.71878-3.75-2.81253-1.25-.93747-2.5-1.71872-3.75-2.49997-1.09375-.78125-2.03125-1.40628-2.8125-1.87503v-.62497c.78125-.46878 1.25-1.09378 1.71875-2.03128.46875-.93747.625-2.49997.625-4.6875v-50.625c-1.25-1.09375-2.5-1.875-3.75-2.65625-1.09375-.78125-2.1875-1.5625-3.4375-2.34375-.78125.78125-1.40625 1.250015-2.03125 1.718765s-1.09375.937485-1.71875 1.406235c-.625.3125-.9375.625015-1.09375.937515v54.999985c.78125.78125 1.5625 1.40625 2.34375 1.87503.625.31247 1.40625.93747 2.34375 1.71872v.15625c-1.5625 1.40625-3.4375 3.125-5.15625 4.6875-1.875 1.71875-3.59375 3.28125-5 4.84375-2.1875-1.5625-4.375-3.125-6.40625-4.84375-2.03125-1.5625-3.75-2.81247-5-3.90625v-.46872c.625-.46878 1.25-1.25003 1.71875-2.1875.46875-1.09378.625-2.65628.625-5.00003v-52.5c-1.25-1.09375-2.5-1.875-3.75-2.34375-1.25-.468735-2.34375-.78125-3.28125-.937485l-.3125-.3125c2.1875-1.875015 3.90625-3.59375 5.625-5.15625 1.5625-1.718765 3.28125-3.4375 5.15625-5.312515 2.1875 1.718765 4.53125 3.437515 6.875 5.15625 2.34375 1.718765 4.21875 3.125 5.9375 4.21875l11.25-9.375c2.34375 1.5625 4.84375 3.437515 7.8125 5.312515 2.96875 2.03125 5.625 3.749985 8.125 5.312485v.625015c-.78125.625-1.25 1.249985-1.71875 2.1875-.46875.78125-.625 1.874985-.625 3.437485v52.18753c1.09375.78125 2.34375 1.5625 3.75 2.34375 1.40625.62497 2.5.9375 3.4375.9375m31.09375-29.84375c-1.71875.46872-3.28125.78125-4.84375.78125-1.09375 0-2.03125 0-3.28125-.15628-1.09375-.15625-2.03125-.3125-2.96875-.62497-.78125 1.24997-1.09375 3.125-1.09375 5.625v19.84372c1.25.78125 2.34375 1.40625 3.4375 2.34375 1.09375.78125 2.1875 1.5625 3.4375 2.1875l5.3125-4.375m0-50.15625c-3.125-1.718735-5.78125-2.968735-7.96875-3.4375-2.1875-.624985-3.90625-.937485-5.3125-.937485-.625 0-1.40625.156235-2.5.468735-.9375.46875-1.875.937515-2.8125 1.875015-.9375.937485-1.71875 2.1875-2.34375 3.90625-.78125 1.718735-1.09375 3.906265-1.09375 6.718735 0 1.87503.46875 3.59378 1.40625 5.3125.9375 1.5625 2.1875 2.96878 3.90625 4.21875 1.5625 1.25 3.4375 2.1875 5.46875 2.96875 2.1875.625 4.375.9375 6.5625.9375.625 0 1.40625 0 2.1875-.15625.78125-.31247 1.5625-.46872 2.5-.78125m21.875 33.4375c-1.5625 1.71875-3.4375 3.4375-5.46875 5.46875-2.03125 1.875-3.75 3.59378-5.15625 5-2.34375-1.71875-4.6875-3.59372-7.1875-5.31247-2.5-1.87503-4.53125-3.28128-5.9375-4.21878l-11.09375 9.53125c-2.03125-1.5625-4.375-3.4375-7.1875-5.625-2.96875-2.03122-5.625-3.90625-7.96875-5.46875v-.625c.78125-.46872 1.25-1.09375 1.71875-2.03122.46875-.78125.625-2.5.625-5.00003v-15.78125c2.5-1.24997 4.84375-2.34375 7.03125-3.43747 2.03125-1.09378 3.90625-2.03128 5.46875-3.125-1.40625-.46878-2.8125-1.25003-4.21875-2.18753-1.5625-.78125-2.8125-1.87497-4.0625-3.125-1.09375-1.40625-2.03125-2.8125-2.8125-4.375-.78125-1.71875-1.09375-3.59375-1.09375-5.625 0-2.5.3125-4.53125.78125-6.406235.625-1.875 1.25-3.59375 2.1875-5.15625.78125-1.40625 1.71875-2.812515 2.8125-4.062515 1.09375-1.249985 2.1875-2.65625 3.28125-3.90625 1.25-1.406235 2.1875-2.65625 2.96875-3.593735.78125-1.093765 1.5625-2.187515 2.34375-3.437515 1.5625.78125 3.59375 1.5625 6.09375 2.500015 2.34375.78125 4.84375 1.71875 7.5 2.656235 2.65625.937515 5.15625 1.875 7.65625 2.812515 2.5.9375 4.6875 1.5625 6.71875 2.34375v.46875c-.9375.78125-1.5625 1.5625-1.875 2.499985-.3125.937515-.625 2.34375-.625 4.218765v51.406235c.3125.31253.78125.625 1.40625 1.09378.78125.46872 1.40625.93747 2.03125 1.24997.78125.31253 1.40625.625 2.1875.78125.625.31253 1.25.31253 1.5625.15628"/></svg>